{
	"asset":{
		"generator":"Khronos glTF Blender I/O v5.1.19",
		"version":"2.0"
	},
	"scene":0,
	"scenes":[
		{
			"name":"Scene",
			"nodes":[
				1
			]
		}
	],
	"nodes":[
		{
			"mesh":0,
			"name":"Node1"
		},
		{
			"children":[
				0
			],
			"name":"Node0"
		}
	],
	"materials":[
		{
			"doubleSided":true,
			"name":"mat0",
			"pbrMetallicRoughness":{
				"baseColorFactor":[
					0.8500000238418579,
					0.8500000238418579,
					0.8500000238418579,
					1
				],
				"metallicFactor":0.05000000074505806,
				"roughnessFactor":0.5
			}
		}
	],
	"meshes":[
		{
			"name":"Mesh0",
			"primitives":[
				{
					"attributes":{
						"POSITION":0,
						"NORMAL":1,
						"TANGENT":2
					},
					"indices":3,
					"material":0
				}
			]
		}
	],
	"accessors":[
		{
			"bufferView":0,
			"componentType":5126,
			"count":99892,
			"max":[
				20.035934448242188,
				49.999996185302734,
				20.998292922973633
			],
			"min":[
				-29.111339569091797,
				0.6395419239997864,
				-16.536727905273438
			],
			"type":"VEC3"
		},
		{
			"bufferView":1,
			"componentType":5126,
			"count":99892,
			"type":"VEC3"
		},
		{
			"bufferView":2,
			"componentType":5126,
			"count":99892,
			"type":"VEC4"
		},
		{
			"bufferView":3,
			"componentType":5125,
			"count":432138,
			"type":"SCALAR"
		}
	],
	"bufferViews":[
		{
			"buffer":0,
			"byteLength":1198704,
			"byteOffset":0,
			"target":34962
		},
		{
			"buffer":0,
			"byteLength":1198704,
			"byteOffset":1198704,
			"target":34962
		},
		{
			"buffer":0,
			"byteLength":1598272,
			"byteOffset":2397408,
			"target":34962
		},
		{
			"buffer":0,
			"byteLength":1728552,
			"byteOffset":3995680,
			"target":34963
		}
	],
	"buffers":[
		{
			"byteLength":5724232,
			"uri":"bunny2.bin"
		}
	]
}
